<svg width="80" height="24" viewBox="0 0 80 24" fill="none" xmlns="http://www.w3.org/2000/svg">
    <g clip-path="url(#clip0)">
        <path d="M0.00474091 11.5955C0.00474091 9.48347 -0.00614582 7.37362 0.00691825 5.2616C0.0221597 3.05377 1.06075 1.42076 3.04431 0.538936C5.13892 -0.392968 7.17692 -0.133864 8.93621 1.42947C9.6678 2.07832 10.3558 2.7816 11.0112 3.50883C11.4576 4.00527 11.7624 3.94648 12.1826 3.48488C12.7988 2.80555 13.4651 2.16977 14.1226 1.5318C17.0621 -1.32487 22.0547 0.0577421 23.0215 4.03793C23.47 5.88432 23.1194 7.62837 21.7325 9.05017C21.0488 9.75128 20.3694 10.4589 19.6509 11.1208C19.2285 11.5106 19.2503 11.7806 19.6596 12.1594C20.3564 12.8039 21.0227 13.4811 21.6737 14.1691C23.7465 16.3595 23.7051 19.693 21.5909 21.7637C19.468 23.8431 16.1824 23.7908 14.0072 21.6396C13.4411 21.08 12.838 20.5509 12.3329 19.9413C11.7624 19.2554 11.3356 19.3468 10.8 19.9739C10.284 20.577 9.68957 21.1105 9.12128 21.6701C7.46868 23.2987 5.32399 23.7211 3.20762 22.8371C1.19357 21.9923 0.00474091 20.1394 0.00474091 17.8379C0.00474091 15.7564 0.00474091 13.6749 0.00474091 11.5955ZM2.1908 11.5955C2.1908 13.738 2.19297 15.8805 2.18862 18.023C2.18644 19.3817 2.9115 20.2962 4.06767 20.8209C5.2848 21.3739 6.46057 21.1736 7.44691 20.2178C8.12842 19.558 8.7642 18.846 9.47184 18.2168C9.97263 17.7704 9.89642 17.4896 9.45006 17.0563C7.93245 15.5887 6.4475 14.0864 4.96473 12.5818C4.26363 11.8698 4.26145 11.4148 4.95385 10.7071C6.00115 9.6337 7.05716 8.5668 8.13495 7.52386C9.44353 6.25664 8.83605 6.36769 10.2709 7.53692C10.665 7.85699 10.6911 8.11609 10.2949 8.48842C9.36079 9.37024 8.48114 10.3109 7.5536 11.2014C7.22264 11.5193 7.1878 11.7174 7.53835 12.0636C10.2339 14.733 12.8968 17.4351 15.5967 20.098C16.9859 21.4676 18.7626 21.4545 20.0733 20.135C21.3536 18.8482 21.3318 16.9844 20.0102 15.6323C19.3679 14.9747 18.6972 14.3477 18.0702 13.677C17.7109 13.2916 17.4431 13.3134 17.0904 13.6814C16.263 14.5414 15.355 15.3296 14.5821 16.2332C13.9528 16.9692 13.6153 16.4902 13.2169 16.0612C12.8315 15.6475 12.2284 15.3667 12.9904 14.6372C15.3942 12.3336 17.7218 9.94942 20.069 7.587C21.1925 6.45696 21.3297 4.82613 20.4282 3.57198C19.2764 1.96945 17.0338 1.77349 15.6141 3.1561C14.9566 3.79624 14.3382 4.48211 13.6545 5.09176C13.1842 5.50981 13.2452 5.78634 13.6719 6.18044C14.4144 6.86412 15.1068 7.60006 15.821 8.31641C16.7442 9.24178 16.7093 9.20912 15.8558 10.1693C15.3224 10.7725 15.0088 10.6614 14.495 10.1345C12.2305 7.81344 9.92255 5.53376 7.62545 3.24102C6.67395 2.2917 5.15634 1.96292 3.99146 2.51596C2.78086 3.09078 2.16467 4.06406 2.18209 5.44449C2.21039 7.49337 2.1908 9.54443 2.1908 11.5955Z" fill="#30455C"/>
        <path d="M40.122 17.1705C40.0501 17.839 39.8563 18.3485 39.5363 18.7034C39.2162 19.0583 38.7524 19.2368 38.1406 19.2368C37.6855 19.2368 37.2805 19.1258 36.9256 18.9059C36.5707 18.686 36.1875 18.3136 35.776 17.7867L33.6661 15.1456V19.0234C33.5094 19.0518 33.2786 19.0909 32.9737 19.141C32.6689 19.1911 32.3597 19.2151 32.0462 19.2151C31.7326 19.2151 31.454 19.1933 31.2057 19.1519C30.9575 19.1084 30.7485 19.0234 30.5765 18.8972C30.4066 18.7687 30.2738 18.5945 30.1824 18.3746C30.0888 18.1547 30.043 17.8673 30.043 17.5124V5.17554C30.1998 5.13199 30.4306 5.08627 30.7354 5.03619C31.0403 4.98611 31.3494 4.96216 31.663 4.96216C31.9743 4.96216 32.2552 4.98393 32.5056 5.0253C32.7538 5.06885 32.9628 5.15376 33.1349 5.28005C33.3047 5.40851 33.4375 5.5827 33.529 5.80261C33.6204 6.02252 33.6683 6.30993 33.6683 6.66484V12.2889L37.3328 8.53954C38.0709 8.53954 38.6631 8.70284 39.1117 9.02944C39.558 9.35604 39.7823 9.76756 39.7823 10.264C39.7823 10.4774 39.7475 10.6733 39.6756 10.8497C39.6038 11.0282 39.4949 11.209 39.3446 11.3919C39.1944 11.5769 39.0028 11.7729 38.7698 11.9776C38.5347 12.1844 38.2625 12.4217 37.949 12.6917L36.7144 13.7565L40.122 17.1705Z" fill="#30455C"/>
        <path d="M51.6466 13.8675C51.6466 14.7493 51.5116 15.5332 51.2416 16.2212C50.9716 16.9092 50.5928 17.4884 50.1029 17.9565C49.613 18.4247 49.0273 18.7796 48.3458 19.0213C47.6642 19.2629 46.9044 19.3827 46.0661 19.3827C45.2278 19.3827 44.4679 19.2542 43.7864 18.9995C43.1049 18.7447 42.5192 18.3789 42.0293 17.9021C41.5394 17.4274 41.1583 16.8483 40.8905 16.1668C40.6205 15.4853 40.4855 14.7188 40.4855 13.8653C40.4855 13.027 40.6205 12.2671 40.8905 11.5856C41.1605 10.9041 41.5394 10.3249 42.0293 9.85029C42.5192 9.37562 43.1049 9.00983 43.7864 8.7529C44.4679 8.49815 45.2278 8.36969 46.0661 8.36969C46.9044 8.36969 47.6642 8.50033 48.3458 8.76379C49.0273 9.02725 49.613 9.39522 50.1029 9.87206C50.5928 10.3489 50.9716 10.9259 51.2416 11.6074C51.5116 12.2911 51.6466 13.0444 51.6466 13.8675ZM44.1914 13.8675C44.1914 14.7341 44.359 15.3982 44.6922 15.8598C45.0253 16.3214 45.4913 16.5522 46.0878 16.5522C46.6844 16.5522 47.1417 16.317 47.4618 15.8489C47.7818 15.3807 47.9408 14.7188 47.9408 13.8675C47.9408 13.0161 47.7775 12.3586 47.4509 11.897C47.1243 11.4354 46.6627 11.2046 46.0661 11.2046C45.4695 11.2046 45.0079 11.4354 44.6813 11.897C44.3547 12.3586 44.1914 13.0161 44.1914 13.8675Z" fill="#30455C"/>
        <path d="M56.365 15.4875C56.365 15.8576 56.4825 16.1189 56.7155 16.2757C56.9507 16.4324 57.2794 16.5108 57.7062 16.5108C57.9196 16.5108 58.1395 16.4934 58.3659 16.4586C58.5924 16.4237 58.7927 16.378 58.9625 16.3192C59.091 16.476 59.1999 16.6502 59.2935 16.8418C59.3849 17.0334 59.4328 17.2642 59.4328 17.5342C59.4328 18.0742 59.2304 18.514 58.8254 18.8558C58.4204 19.1977 57.7062 19.3675 56.685 19.3675C55.4352 19.3675 54.4728 19.0823 53.7979 18.5162C53.1229 17.9479 52.7854 17.0247 52.7854 15.7466V6.62567C52.9422 6.58213 53.1643 6.5364 53.456 6.48632C53.7478 6.43624 54.0548 6.41229 54.3836 6.41229C55.0085 6.41229 55.494 6.52334 55.8424 6.74325C56.1908 6.96316 56.365 7.42911 56.365 8.13893V8.76818H59.1563C59.2412 8.92495 59.324 9.11873 59.4024 9.35388C59.4807 9.58904 59.5199 9.84814 59.5199 10.1312C59.5199 10.6276 59.4089 10.9869 59.189 11.2068C58.9691 11.4267 58.6729 11.5378 58.305 11.5378H56.3671V15.4875H56.365Z" fill="#30455C"/>
        <path d="M64.8544 8.37189C65.6209 8.37189 66.3198 8.45027 66.9534 8.60704C67.5848 8.76381 68.1248 9.00114 68.5734 9.32121C69.0197 9.64128 69.3659 10.0463 69.6076 10.5362C69.8493 11.0261 69.969 11.6052 69.969 12.2715V17.0442C69.969 17.4144 69.8667 17.7149 69.6598 17.95C69.453 18.1852 69.2091 18.3877 68.9239 18.5575C68.0007 19.1105 66.7008 19.3892 65.0265 19.3892C64.2731 19.3892 63.5959 19.3174 62.9928 19.1759C62.3897 19.0343 61.8715 18.821 61.4382 18.5379C61.0049 18.2549 60.6718 17.8912 60.4366 17.4514C60.2015 17.0116 60.0861 16.4999 60.0861 15.9186C60.0861 14.9388 60.3778 14.1854 60.9592 13.6607C61.5405 13.1359 62.4419 12.8093 63.6656 12.6809L66.457 12.3826V12.2323C66.457 11.8208 66.2763 11.5269 65.9148 11.3483C65.5534 11.172 65.0308 11.0827 64.3493 11.0827C63.8093 11.0827 63.2846 11.1393 62.7729 11.2525C62.2612 11.3657 61.7996 11.5073 61.3881 11.6793C61.203 11.5508 61.0463 11.357 60.92 11.0936C60.7915 10.8301 60.7284 10.5579 60.7284 10.2727C60.7284 9.90256 60.8177 9.60862 60.994 9.38871C61.1704 9.16879 61.4447 8.98154 61.8149 8.82477C62.2264 8.66801 62.7119 8.55478 63.2737 8.48293C63.8289 8.40672 64.358 8.37189 64.8544 8.37189ZM65.0243 16.7438C65.266 16.7438 65.5316 16.7198 65.8234 16.6697C66.1151 16.6197 66.3307 16.5522 66.4722 16.4673V14.7624L64.9394 14.8909C64.5409 14.9192 64.2143 15.0041 63.9596 15.1456C63.7048 15.2871 63.5763 15.5005 63.5763 15.7857C63.5763 16.071 63.6852 16.2996 63.9073 16.4781C64.1272 16.6545 64.4995 16.7438 65.0243 16.7438Z" fill="#30455C"/>
        <path d="M80 15.9556C80 17.0355 79.595 17.8804 78.7851 18.49C77.9751 19.0997 76.7819 19.4067 75.2055 19.4067C74.6089 19.4067 74.0559 19.3631 73.5442 19.2782C73.0325 19.1933 72.5971 19.0605 72.2334 18.8841C71.872 18.7077 71.5868 18.4835 71.3821 18.2135C71.1753 17.9435 71.0729 17.6234 71.0729 17.2555C71.0729 16.9136 71.1448 16.6262 71.2863 16.3932C71.4278 16.1581 71.5977 15.9643 71.798 15.8075C72.2095 16.034 72.682 16.2365 73.2154 16.415C73.7489 16.5935 74.3629 16.6806 75.0575 16.6806C75.4973 16.6806 75.8348 16.6175 76.0699 16.489C76.3051 16.3606 76.4205 16.1907 76.4205 15.9774C76.4205 15.7792 76.3356 15.6224 76.1657 15.5092C75.9959 15.396 75.7107 15.3046 75.3144 15.2327L74.6764 15.1042C73.4419 14.8626 72.5209 14.4837 71.9177 13.9655C71.3146 13.4473 71.012 12.7048 71.012 11.7402C71.012 11.2155 71.1252 10.7387 71.3538 10.3119C71.5802 9.88515 71.9003 9.53024 72.3118 9.24718C72.7233 8.96413 73.2176 8.74422 73.7924 8.58745C74.3672 8.43068 75.003 8.35229 75.6998 8.35229C76.2245 8.35229 76.7188 8.39149 77.1804 8.46987C77.642 8.54826 78.0426 8.66583 78.3844 8.82042C78.7263 8.97719 78.9941 9.17969 79.1944 9.4279C79.3926 9.67612 79.4927 9.97006 79.4927 10.3119C79.4927 10.6385 79.4318 10.9194 79.312 11.1524C79.1922 11.3875 79.0377 11.5813 78.8548 11.7381C78.7415 11.6662 78.5695 11.5922 78.3431 11.5138C78.1166 11.4354 77.8662 11.3636 77.5984 11.3004C77.3284 11.2373 77.0563 11.1828 76.7776 11.1415C76.501 11.0979 76.2485 11.0783 76.022 11.0783C75.5539 11.0783 75.1903 11.1306 74.9355 11.2373C74.6808 11.344 74.5523 11.5116 74.5523 11.7381C74.5523 11.8948 74.6242 12.0233 74.7657 12.1213C74.9072 12.2214 75.1772 12.3129 75.5757 12.3978L76.2354 12.5459C77.5984 12.8594 78.5673 13.2883 79.1443 13.8348C79.7126 14.3835 80 15.089 80 15.9556Z" fill="#30455C"/>
    </g>
    <defs>
        <clipPath id="clip0">
            <rect width="80" height="23.2867" fill="white"/>
        </clipPath>
    </defs>
</svg>